<?xml version="1.0" encoding="utf-8"?>
<!-- Generator: Adobe Illustrator 17.0.0, SVG Export Plug-In . SVG Version: 6.00 Build 0)  -->
<!DOCTYPE svg PUBLIC "-//W3C//DTD SVG 1.1//EN" "http://www.w3.org/Graphics/SVG/1.1/DTD/svg11.dtd">
<svg version="1.1" id="Layer_1" xmlns="http://www.w3.org/2000/svg" xmlns:xlink="http://www.w3.org/1999/xlink" x="0px" y="0px"
	 width="1132.523px" height="124px" viewBox="-2.83 0 1132.523 124" enable-background="new -2.83 0 1132.523 124"
	 xml:space="preserve">
<g>
	<g>
		<path fill="#FFFFFF" d="M103.176,66.633c4.171-6.509,6.286-14.291,6.286-23.131c0-8.953-2.121-16.771-6.304-23.237
			C98.973,13.8,92.972,8.785,85.318,5.362c-7.273-3.252-15.964-4.9-25.833-4.9H15.367v123.076H33.62V86.542h25.865
			c3.168,0,6.237-0.172,9.17-0.513l27.025,37.509h22.552L87.351,80.676C94.05,77.294,99.367,72.578,103.176,66.633z M83.849,61.703
			c-5.238,4.471-13.331,6.739-24.055,6.739H33.62v-49.88h26.174c10.734,0,18.836,2.249,24.08,6.683
			c4.935,4.177,7.335,10.149,7.335,18.258C91.208,51.521,88.801,57.475,83.849,61.703z"/>
		<rect x="125.736" y="0.462" fill="#FFFFFF" width="18.254" height="123.076"/>
		<path fill="#FFFFFF" d="M230.367,61.117c-4.525-2.206-9.499-4.038-14.787-5.446c-4.881-1.297-9.836-2.556-14.733-3.742
			c-4.426-1.069-8.54-2.43-12.233-4.047c-2.974-1.3-5.244-2.981-6.943-5.142c-1.376-1.748-2.074-4.396-2.074-7.871
			c0-3.055,0.761-5.715,2.325-8.129c1.543-2.382,4.128-4.397,7.678-5.989c3.932-1.759,9.165-2.651,15.554-2.651
			c4.083,0,8.446,0.674,12.965,2.003c4.361,1.284,8.39,3.274,11.974,5.919l6.31,4.655l10.23-14.878l-5.743-4.379
			c-4.577-3.49-10.142-6.303-16.542-8.359C218.018,1.03,211.508,0,205,0c-9.541,0-17.579,1.552-23.893,4.616
			c-6.593,3.201-11.596,7.536-14.869,12.88c-3.248,5.3-4.894,11.094-4.894,17.22c0,7.225,1.712,13.313,5.087,18.093
			c3.201,4.535,7.488,8.133,12.738,10.69c4.557,2.223,9.589,4.037,14.956,5.393c5.214,1.317,9.998,2.506,14.62,3.635
			c4.383,1.073,8.479,2.437,12.174,4.053c2.976,1.302,5.248,2.984,6.944,5.137c1.378,1.753,2.077,4.351,2.077,7.721
			c0,2.923-0.773,5.512-2.362,7.913c-1.578,2.385-4.198,4.382-7.786,5.935c-4.006,1.733-9.449,2.612-16.179,2.612
			c-6.427,0-12.442-1.191-17.88-3.54c-5.309-2.293-9.325-5.021-11.938-8.109l-5.131-6.065l-13.186,12.243l4.484,5.511
			c4.382,5.387,10.7,9.816,18.778,13.164c7.829,3.249,16.25,4.896,25.027,4.896c9.601,0,17.725-1.506,24.147-4.476
			c6.781-3.135,11.92-7.443,15.274-12.808c3.322-5.317,5.007-11.129,5.007-17.277c0-7.16-1.733-13.174-5.151-17.873
			C239.851,67.176,235.586,63.661,230.367,61.117z"/>
		<polygon fill="#FFFFFF" points="368.316,0.462 342.999,0.462 280.719,64.437 280.719,0.462 262.465,0.462 262.465,123.538 
			280.719,123.538 280.719,90.344 299.738,70.794 346.326,123.538 370.746,123.538 312.585,57.791 		"/>
		<polygon fill="#FFFFFF" points="462.633,68.442 399.188,68.442 399.188,0.462 380.934,0.462 380.934,123.538 399.188,123.538 
			399.188,86.542 462.633,86.542 462.633,123.538 480.887,123.538 480.887,0.462 462.633,0.462 		"/>
		<path fill="#FFFFFF" d="M612.085,17.763c-5.676-5.616-12.426-10.032-20.065-13.125C584.409,1.56,576.061,0,567.211,0
			c-8.854,0-17.201,1.56-24.812,4.639c-7.64,3.092-14.39,7.508-20.062,13.123c-5.668,5.607-10.141,12.238-13.293,19.71
			c-3.157,7.485-4.758,15.738-4.758,24.529c0,8.793,1.601,17.046,4.759,24.531c3.152,7.47,7.624,14.1,13.29,19.706
			c5.68,5.622,12.431,10.039,20.063,13.125c7.604,3.078,15.952,4.639,24.813,4.639c8.858,0,17.206-1.561,24.81-4.638
			c7.633-3.087,14.383-7.503,20.065-13.125c5.67-5.612,10.142-12.243,13.291-19.707c3.157-7.484,4.758-15.737,4.758-24.53
			c0-8.791-1.601-17.043-4.758-24.529C622.228,30.005,617.756,23.375,612.085,17.763z M567.211,105.9
			c-6.391,0-12.386-1.111-17.822-3.304c-5.402-2.176-10.162-5.279-14.149-9.226c-3.995-3.95-7.146-8.623-9.365-13.892
			c-2.214-5.251-3.335-11.132-3.335-17.479c0-6.346,1.122-12.227,3.335-17.479c2.22-5.266,5.372-9.941,9.367-13.893
			c3.985-3.942,8.746-7.046,14.148-9.224c5.44-2.192,11.436-3.304,17.821-3.304c6.383,0,12.379,1.112,17.818,3.302
			c5.403,2.179,10.164,5.284,14.15,9.224c3.998,3.957,7.15,8.632,9.368,13.895c2.213,5.251,3.335,11.132,3.335,17.479
			c0,6.348-1.122,12.229-3.336,17.48c-2.218,5.264-5.369,9.938-9.366,13.893c-3.987,3.944-8.747,7.048-14.15,9.224
			C579.595,104.789,573.6,105.9,567.211,105.9z"/>
		<path fill="#FFFFFF" d="M728.292,66.633c4.171-6.509,6.286-14.291,6.286-23.131c0-8.953-2.121-16.771-6.304-23.237
			c-4.184-6.465-10.186-11.48-17.839-14.903c-7.273-3.252-15.965-4.9-25.833-4.9h-44.118v123.076h18.254V86.542h25.865
			c3.169,0,6.237-0.172,9.17-0.513l27.025,37.509h22.552l-30.882-42.862C719.166,77.294,724.483,72.578,728.292,66.633z
			 M708.965,61.703c-5.238,4.471-13.332,6.739-24.055,6.739h-26.173v-49.88h26.173c10.734,0,18.837,2.249,24.08,6.683
			c4.935,4.177,7.335,10.149,7.335,18.258C716.325,51.52,713.917,57.474,708.965,61.703z"/>
		<path fill="#FFFFFF" d="M997.264,17.763c-5.676-5.616-12.426-10.032-20.065-13.125C969.587,1.56,961.24,0,952.389,0
			c-8.854,0-17.201,1.56-24.812,4.639c-7.639,3.091-14.389,7.507-20.063,13.124c-5.669,5.608-10.141,12.239-13.292,19.71
			c-3.158,7.486-4.759,15.738-4.759,24.528c0,8.792,1.601,17.045,4.759,24.53c3.151,7.468,7.623,14.099,13.291,19.706
			c5.68,5.623,12.432,10.039,20.063,13.125c7.604,3.078,15.952,4.639,24.813,4.639c8.858,0,17.206-1.561,24.81-4.638
			c7.633-3.087,14.383-7.503,20.065-13.125c5.67-5.612,10.142-12.242,13.291-19.707c3.157-7.484,4.758-15.737,4.758-24.53
			c0-8.791-1.601-17.043-4.758-24.529C1007.406,30.005,1002.934,23.375,997.264,17.763z M952.389,105.9
			c-6.39,0-12.386-1.111-17.822-3.304c-5.402-2.176-10.162-5.28-14.148-9.226c-3.995-3.95-7.146-8.623-9.365-13.893
			c-2.213-5.249-3.335-11.13-3.335-17.478c0-6.347,1.122-12.228,3.335-17.479c2.22-5.266,5.371-9.94,9.367-13.893
			c3.984-3.942,8.745-7.046,14.147-9.224c5.441-2.192,11.437-3.304,17.822-3.304c6.383,0,12.379,1.112,17.818,3.302
			c5.403,2.179,10.164,5.284,14.15,9.224c3.998,3.957,7.15,8.632,9.368,13.895c2.213,5.251,3.335,11.132,3.335,17.479
			c0,6.348-1.122,12.229-3.336,17.48c-2.218,5.264-5.369,9.938-9.366,13.892c-3.987,3.945-8.747,7.049-14.15,9.225
			C964.773,104.789,958.778,105.9,952.389,105.9z"/>
		<polygon fill="#FFFFFF" points="1111.439,0.462 1111.439,88.023 1043.667,0.462 1029.74,0.462 1029.74,123.538 1047.994,123.538 
			1047.994,35.977 1115.766,123.538 1129.693,123.538 1129.693,0.462 		"/>
		<g>
			<rect x="750.852" y="86.501" fill="#FFFFFF" width="18.254" height="37.038"/>
			<rect x="750.852" y="0.462" fill="#FFFFFF" width="18.254" height="67.98"/>
			<polygon fill="#FFFFFF" points="896.063,0.405 788.624,0.462 788.624,18.562 858.913,18.562 820.652,68.442 843.686,68.442 			
				"/>
			<polygon fill="#FFFFFF" points="829.784,86.501 806.8,86.501 778.39,123.538 887.807,123.538 887.807,105.438 815.205,105.438 
							"/>
		</g>
	</g>
	<polygon fill="#EC1C24" points="69.025,86.542 15.367,86.542 15.367,68.442 57.325,68.442 	"/>
	<polygon fill="#EC1C24" points="380.934,86.542 462.829,86.542 462.829,68.442 399.2,68.442 	"/>
	<polygon fill="#EC1C24" points="-2.83,86.542 49.316,86.542 49.316,68.442 15.436,68.442 	"/>
	<polygon fill="#EC1C24" points="498.722,68.442 416.827,68.442 416.827,86.542 480.456,86.542 	"/>
</g>
</svg>
