<?xml version="1.0" encoding="utf-8"?>
<!-- Generator: Adobe Illustrator 17.0.0, SVG Export Plug-In . SVG Version: 6.00 Build 0)  -->
<!DOCTYPE svg PUBLIC "-//W3C//DTD SVG 1.1//EN" "http://www.w3.org/Graphics/SVG/1.1/DTD/svg11.dtd">
<svg version="1.1" id="Layer_1" xmlns="http://www.w3.org/2000/svg" xmlns:xlink="http://www.w3.org/1999/xlink" x="0px" y="0px"
	 width="1400.291px" height="261.418px" viewBox="0 0 1400.291 261.418" enable-background="new 0 0 1400.291 261.418"
	 xml:space="preserve">
<path fill="#231F20" d="M700.146,130.709"/>
<path fill="#231F20" d="M700.146,130.709"/>
<g>
	<g>
		<polygon fill="none" points="1360.512,161.948 1277.432,54.914 1360.512,162.252 		"/>
		<path fill="none" d="M742.056,155.946c0.326-0.618,0.646-1.241,0.949-1.875c0.359-0.754,0.704-1.517,1.031-2.292
			c0.001-0.003,0.002-0.007,0.004-0.01c0.403-0.957,0.767-1.935,1.111-2.925c0.088-0.255,0.169-0.515,0.254-0.773
			c0.265-0.809,0.514-1.626,0.739-2.455c0.058-0.211,0.117-0.422,0.172-0.634c0.563-2.179,1.001-4.423,1.3-6.733
			c0.134-1.033,0.237-2.08,0.317-3.138c0.032-0.423,0.063-0.846,0.087-1.273c0.019-0.34,0.036-0.681,0.05-1.024
			c0.031-0.805,0.054-1.614,0.054-2.432c0-0.01,0-0.02,0-0.03c0-7.78-1.375-14.989-4.088-21.426
			c-2.719-6.452-6.583-12.183-11.483-17.033c-4.886-4.831-10.723-8.636-17.346-11.308c-6.668-2.686-14.018-4.048-21.843-4.048
			c-7.827,0-15.177,1.363-21.846,4.05c-2.484,1.001-4.857,2.162-7.11,3.477c-0.751,0.438-1.489,0.894-2.213,1.366
			c-0.068,0.044-0.132,0.093-0.2,0.138c-2.115,1.393-4.114,2.928-5.988,4.604c-0.625,0.559-1.235,1.133-1.832,1.723
			c-4.898,4.845-8.761,10.575-11.482,17.031c-0.281,0.667-0.544,1.344-0.793,2.029c-0.249,0.686-0.483,1.379-0.707,2.078
			c-1.005,3.144-1.717,6.445-2.134,9.885c-0.293,2.414-0.455,4.89-0.455,7.433c0,2.319,0.137,4.58,0.381,6.792
			c0.573,5.21,1.803,10.116,3.708,14.634c2.721,6.459,6.583,12.188,11.48,17.03c4.887,4.838,10.722,8.641,17.345,11.31
			c6.664,2.688,14.013,4.05,21.847,4.05c7.832,0,15.181-1.362,21.843-4.049c6.262-2.522,11.809-6.073,16.527-10.538
			c0.272-0.258,0.552-0.506,0.819-0.77c0.637-0.63,1.255-1.277,1.856-1.937c0.075-0.082,0.144-0.168,0.218-0.25
			c0.534-0.594,1.059-1.196,1.563-1.814c0.022-0.027,0.043-0.055,0.065-0.083c1.121-1.376,2.172-2.807,3.15-4.291
			c0.891-1.352,1.724-2.748,2.494-4.185C741.955,156.151,742.003,156.047,742.056,155.946z"/>
		<polygon fill="#FFFFFF" points="565.167,205.789 565.168,205.789 565.168,160.436 587.544,160.436 587.544,205.789 
			587.544,205.789 587.544,160.436 565.167,160.436 		"/>
		<polygon fill="#FFFFFF" points="565.957,138.248 570.794,138.248 570.794,138.248 570.794,138.272 587.544,138.272 
			587.544,54.914 565.167,74.924 565.167,138.247 565.957,138.247 		"/>
		<rect x="465.016" y="160.436" fill="#FFFFFF" width="22.376" height="0"/>
		<polygon fill="#FFFFFF" points="465.741,138.248 487.392,138.248 487.392,54.914 465.016,54.348 465.016,138.966 465.74,138.248 
					"/>
		<path fill="#FFFFFF" d="M764.662,160.437c-2.957,7.005-6.872,13.405-11.662,19.11
			C757.789,173.841,761.705,167.442,764.662,160.437z"/>
		<path fill="#FFFFFF" d="M769.384,116.738c0.74,4.398,1.117,8.941,1.117,13.613v0C770.501,125.68,770.123,121.136,769.384,116.738z
			"/>
		<path fill="#FFFFFF" d="M638.356,76.122c6.953-6.883,15.228-12.297,24.593-16.087c9.329-3.774,19.562-5.687,30.416-5.687
			c10.85,0,21.083,1.913,30.413,5.686c9.365,3.792,17.639,9.205,24.597,16.089c0.736,0.728,1.453,1.472,2.156,2.228
			c-0.703-0.756-1.42-1.5-2.156-2.228c-6.958-6.885-15.232-12.298-24.597-16.089c-9.331-3.772-19.563-5.686-30.413-5.686
			c-10.854,0-21.086,1.913-30.416,5.687C653.584,63.825,645.308,69.239,638.356,76.122c-6.949,6.873-12.431,15.002-16.295,24.161
			c-0.402,0.953-0.779,1.919-1.135,2.895c0.356-0.976,0.732-1.942,1.135-2.895C625.924,91.124,631.407,82.995,638.356,76.122z"/>
		<path fill="#FFFFFF" d="M616.227,130.351L616.227,130.351c0-4.494,0.362-8.866,1.041-13.11
			C616.589,121.486,616.227,125.857,616.227,130.351z"/>
		<path fill="#FFFFFF" d="M743.005,154.072c0.36-0.753,0.704-1.517,1.031-2.292c0.001-0.004,0.002-0.007,0.004-0.011
			c-0.001,0.003-0.002,0.007-0.004,0.01C743.709,152.555,743.364,153.318,743.005,154.072z"/>
		<path fill="none" d="M806.229,77.133v38.487l-0.667,0.678v21.951h32.084c13.146,0,23.067-2.779,29.488-8.261
			c6.07-5.184,9.022-12.483,9.022-22.311c0-9.94-2.941-17.261-8.991-22.382c-5.606-4.74-13.879-7.442-24.631-8.056
			c-1.37-0.067-2.772-0.106-4.221-0.106H806.229z"/>
		<path fill="none" d="M1204.727,91.892c-4.886-4.831-10.723-8.636-17.346-11.308c-6.668-2.686-14.018-4.048-21.843-4.048
			c-7.827,0-15.178,1.363-21.847,4.05c-6.623,2.67-12.459,6.475-17.343,11.308c-4.898,4.846-8.761,10.575-11.482,17.031
			c-2.712,6.437-4.088,13.646-4.088,21.426c0,7.782,1.376,14.991,4.088,21.426c2.721,6.459,6.583,12.188,11.48,17.03
			c4.887,4.837,10.722,8.641,17.344,11.31c6.664,2.688,14.014,4.05,21.848,4.05c7.832,0,15.181-1.362,21.843-4.049
			c6.623-2.668,12.458-6.473,17.346-11.309c4.9-4.847,8.763-10.577,11.482-17.029c2.713-6.438,4.089-13.646,4.089-21.428
			c0-7.78-1.375-14.989-4.088-21.426C1213.491,102.474,1209.627,96.743,1204.727,91.892z"/>
		<polygon fill="#FFFFFF" points="152.179,205.789 174.555,205.789 174.555,54.914 152.179,74.924 		"/>
		<path fill="#FFFFFF" d="M280.442,129.269c-5.547-2.705-11.645-4.95-18.127-6.676c-5.983-1.59-12.058-3.133-18.061-4.587
			c-5.425-1.311-10.468-2.979-14.995-4.961c-3.646-1.593-6.428-3.654-8.511-6.303c-1.688-2.143-2.542-5.389-2.542-9.649
			c0-3.745,0.932-7.005,2.851-9.965c1.892-2.92,5.061-5.391,9.412-7.341c4.82-2.156,11.234-3.25,19.067-3.25
			c5.005,0,10.353,0.826,15.894,2.455c5.346,1.573,10.285,4.014,14.679,7.255l7.735,5.706l12.541-18.238l-7.04-5.368
			c-5.611-4.279-12.432-7.726-20.278-10.247c-7.762-2.489-15.743-3.751-23.72-3.751c-11.696,0-21.549,1.903-29.29,5.658
			c-8.082,3.924-14.214,9.238-18.228,15.79c-3.981,6.498-6,13.6-6,21.109c0,8.857,2.099,16.319,6.236,22.179
			c3.924,5.56,9.179,9.97,15.616,13.105c5.586,2.725,11.754,4.949,18.333,6.611c6.392,1.615,12.256,3.073,17.922,4.456
			c5.373,1.315,10.395,2.988,14.924,4.968c3.648,1.596,6.433,3.658,8.512,6.298c1.689,2.148,2.546,5.333,2.546,9.465
			c0,3.583-0.947,6.757-2.896,9.7c-1.935,2.923-5.146,5.372-9.544,7.276c-4.911,2.125-11.583,3.202-19.833,3.202
			c-7.879,0-15.252-1.459-21.918-4.34c-6.507-2.811-11.431-6.155-14.634-9.941l-6.29-7.435l-16.164,15.009l5.497,6.756
			c5.371,6.604,13.117,12.033,23.019,16.137c9.598,3.982,19.92,6.001,30.68,6.001c11.769,0,21.729-1.847,29.601-5.487
			c8.313-3.843,14.612-9.125,18.723-15.702c4.072-6.517,6.138-13.642,6.138-21.178c0-8.778-2.125-16.15-6.314-21.91
			C292.068,136.697,286.839,132.388,280.442,129.269z"/>
		<polygon fill="#FFFFFF" points="449.547,54.914 418.513,54.914 342.167,133.338 342.167,54.914 319.79,54.914 319.79,205.789 
			342.167,205.789 342.167,165.098 365.481,141.132 422.591,205.789 452.526,205.789 381.229,125.191 		"/>
		<g>
			<polygon fill="#FFFFFF" points="940.859,74.924 940.859,138.248 940.859,160.386 918.483,160.386 918.483,138.248 
				918.483,54.914 			"/>
			<rect x="918.483" y="160.436" fill="#FFFFFF" width="22.376" height="45.353"/>
		</g>
		<rect x="918.483" y="160.386" fill="#FFFFFF" width="22.376" height="0.051"/>
		<path fill="#FFFFFF" d="M1220.549,76.123c-6.958-6.885-15.232-12.298-24.597-16.089c-9.331-3.772-19.563-5.686-30.413-5.686
			c-10.854,0-21.086,1.913-30.416,5.687c-9.364,3.789-17.639,9.203-24.594,16.088c-6.949,6.875-12.431,15.003-16.294,24.161
			c-3.871,9.176-5.833,19.293-5.833,30.067c0,10.778,1.962,20.895,5.833,30.07c3.862,9.155,9.345,17.283,16.292,24.157
			c6.963,6.893,15.24,12.307,24.594,16.089c9.321,3.773,19.555,5.687,30.417,5.687c10.859,0,21.092-1.914,30.414-5.686
			c9.356-3.784,17.631-9.197,24.597-16.089c6.951-6.88,12.433-15.007,16.293-24.158c3.87-9.174,5.833-19.292,5.833-30.07
			c0-10.776-1.962-20.892-5.833-30.068C1232.982,91.131,1227.5,83.003,1220.549,76.123z M1216.21,151.78
			c-2.719,6.453-6.582,12.183-11.482,17.029c-4.888,4.836-10.723,8.641-17.346,11.309c-6.662,2.687-14.011,4.049-21.843,4.049
			c-7.834,0-15.184-1.362-21.848-4.05c-6.623-2.668-12.457-6.472-17.344-11.31c-4.897-4.842-8.759-10.571-11.48-17.03
			c-2.712-6.435-4.088-13.644-4.088-21.426c0-7.78,1.376-14.989,4.088-21.426c2.721-6.456,6.584-12.186,11.482-17.031
			c4.884-4.833,10.721-8.638,17.343-11.308c6.669-2.687,14.02-4.05,21.847-4.05c7.825,0,15.175,1.363,21.843,4.048
			c6.623,2.671,12.459,6.477,17.346,11.308c4.9,4.851,8.764,10.582,11.483,17.033c2.713,6.437,4.088,13.646,4.088,21.426
			C1220.299,138.134,1218.923,145.342,1216.21,151.78z"/>
		<rect x="465.016" y="160.436" fill="#FFFFFF" width="22.376" height="45.353"/>
		<rect x="565.168" y="160.436" fill="#FFFFFF" width="22.376" height="45.353"/>
		<path fill="#FFFFFF" d="M639.059,122.918c0.417-3.44,1.129-6.741,2.134-9.885C640.188,116.177,639.476,119.478,639.059,122.918z"
			/>
		<path fill="#FFFFFF" d="M693.364,206.355c-10.863,0-21.097-1.914-30.417-5.687c-9.356-3.783-17.632-9.197-24.594-16.089
			c-1.52-1.503-2.969-3.066-4.347-4.687c1.378,1.621,2.827,3.184,4.347,4.688c6.962,6.892,15.238,12.306,24.594,16.089
			C672.268,204.442,682.502,206.355,693.364,206.355c10.859,0,21.092-1.913,30.414-5.686c8.334-3.371,15.803-8.041,22.26-13.89
			c-6.457,5.849-13.926,10.52-22.26,13.89C714.457,204.441,704.224,206.355,693.364,206.355z"/>
		<path fill="#FFFFFF" d="M739.407,160.437c-0.978,1.484-2.029,2.915-3.15,4.291C737.379,163.353,738.429,161.921,739.407,160.437z"
			/>
		<path fill="#FFFFFF" d="M693.364,76.537c7.825,0,15.175,1.363,21.843,4.048c6.623,2.671,12.46,6.477,17.346,11.308
			c4.9,4.851,8.764,10.582,11.483,17.033c2.713,6.437,4.088,13.646,4.088,21.426v0c0-7.78-1.375-14.989-4.088-21.426
			c-2.719-6.452-6.583-12.183-11.483-17.033c-4.886-4.831-10.723-8.636-17.346-11.308C708.539,77.899,701.189,76.537,693.364,76.537
			c-7.827,0-15.177,1.363-21.846,4.05c-2.484,1.001-4.857,2.162-7.11,3.477c2.254-1.315,4.626-2.476,7.11-3.477
			C678.187,77.9,685.537,76.537,693.364,76.537z"/>
		<path fill="#FFFFFF" d="M654.174,91.895c0.596-0.59,1.207-1.165,1.832-1.723C655.381,90.73,654.771,91.305,654.174,91.895
			c-4.898,4.844-8.761,10.575-11.482,17.031c-0.281,0.667-0.544,1.344-0.793,2.03c0.249-0.685,0.512-1.362,0.793-2.029
			C645.413,102.47,649.276,96.739,654.174,91.895z"/>
		<path fill="#FFFFFF" d="M638.604,130.351L638.604,130.351c0-2.543,0.162-5.019,0.455-7.433
			C638.766,125.333,638.604,127.808,638.604,130.351z"/>
		<path fill="#EC1C24" d="M764.665,160.429c0.001-0.002,0.002-0.005,0.003-0.007c0.436-1.032,0.839-2.081,1.226-3.136
			c-0.387,1.056-0.791,2.104-1.226,3.136C764.667,160.424,764.666,160.427,764.665,160.429z"/>
		<path fill="#EC1C24" d="M739.407,160.437c0.892-1.352,1.726-2.746,2.494-4.185C741.13,157.689,740.298,159.084,739.407,160.437z"
			/>
		<path fill="#EC1C24" d="M747.616,138.249c-0.299,2.31-0.737,4.554-1.3,6.733C746.882,142.804,747.317,140.559,747.616,138.249z"/>
		<rect x="565.957" y="138.248" fill="#EC1C24" width="4.837" height="0.023"/>
		<rect x="568.375" y="135.83" fill="#EC1C24" width="0.001" height="4.837"/>
		<rect x="465.74" y="138.248" fill="#EC1C24" width="21.652" height="0.001"/>
		<path fill="#FFFFFF" d="M746.316,144.981c-0.055,0.212-0.115,0.423-0.172,0.634c-0.226,0.829-0.474,1.647-0.739,2.455
			c-0.084,0.258-0.166,0.518-0.254,0.773c-0.343,0.99-0.708,1.969-1.111,2.925c-0.001,0.003-0.002,0.007-0.004,0.011
			c-0.327,0.775-0.67,1.539-1.031,2.292c-0.303,0.634-0.623,1.256-0.949,1.875c-0.053,0.101-0.102,0.205-0.155,0.305
			c-0.768,1.439-1.603,2.833-2.494,4.185h25.255c0.001-0.003,0.002-0.005,0.003-0.008s0.002-0.005,0.003-0.007
			c0.436-1.032,0.839-2.08,1.226-3.136c0.116-0.316,0.225-0.635,0.336-0.953c0.273-0.778,0.533-1.562,0.779-2.352
			c0.104-0.333,0.209-0.664,0.309-0.998c0.302-1.019,0.587-2.045,0.846-3.083c0.018-0.073,0.04-0.145,0.058-0.218
			c0.269-1.089,0.505-2.191,0.727-3.301c0.073-0.364,0.138-0.73,0.205-1.096c0.147-0.797,0.282-1.598,0.404-2.405
			c0.059-0.382,0.118-0.763,0.171-1.147c0.14-1.019,0.262-2.044,0.363-3.078c0.013-0.136,0.033-0.27,0.045-0.406
			c0,0,0-0.001,0-0.001h-22.522C747.317,140.559,746.882,142.804,746.316,144.981z"/>
		<path fill="#FFFFFF" d="M745.15,148.844c-0.344,0.99-0.708,1.969-1.111,2.925C744.443,150.813,744.807,149.834,745.15,148.844z"/>
		<path fill="#FFFFFF" d="M783.853,205.819h22.376v-45.382l-22.376-0.051V205.819z M805.562,160.436L805.562,160.436
			L805.562,160.436z"/>
		<path fill="#FFFFFF" d="M877.259,160.443l-5.164-7.167c6.42-3.241,11.794-7.491,16.067-12.671
			c-3.657-0.486-7.358-0.893-11.092-1.231l0.051-0.051c3.717,0.337,7.401,0.742,11.04,1.226c0.614-0.745,1.207-1.51,1.775-2.293
			h0.043c0.52-0.719,1.033-1.443,1.514-2.194c5.113-7.979,7.706-17.518,7.706-28.354c0-10.975-2.6-20.559-7.728-28.485
			c-5.13-7.926-12.487-14.073-21.869-18.27c-8.916-3.986-19.57-6.007-31.667-6.007h-54.083v83.334h0.085l21.625-0.03V77.102h32.084
			c1.683,0,3.311,0.047,4.888,0.136c11.075,0.54,19.578,3.25,25.298,8.086c6.05,5.121,8.991,12.441,8.991,22.381
			c0,9.829-2.951,17.127-9.022,22.311c-6.421,5.481-16.342,8.261-29.488,8.261h-3.027l0.317,0.491l14.026,21.698l0.017,0.023
			l32.658,45.329h26.312v-1.852l-30.463-42.282L877.259,160.443z"/>
		<rect x="530.919" y="138.247" fill="#EC1C24" width="34.248" height="0"/>
		<rect x="548.043" y="143.312" fill="#EC1C24" width="0" height="34.248"/>
		<polygon fill="#EC1C24" points="565.168,138.248 565.957,138.248 565.957,138.247 565.167,138.247 565.167,138.248 		"/>
		<path fill="#FFFFFF" d="M622.061,160.423c-0.105-0.25-0.194-0.509-0.297-0.76c-2.363-5.787-3.973-11.941-4.819-18.394
			c-0.131-1-0.243-2.008-0.339-3.021h-28.272v0.024h-0.79h-16.75h-4.837v-0.023h-0.79v-0.001h0h-34.248h-43.527v0.001H465.74
			l-0.725,0.718l-21.666,21.469h21.666h22.376h43.527h34.248h5.627h16.75h34.523C622.065,160.432,622.062,160.427,622.061,160.423z"
			/>
		<rect x="565.562" y="137.853" fill="#EC1C24" width="0.001" height="0.79"/>
		<path fill="#FFFFFF" d="M767.664,108.984c-0.413-1.49-0.866-2.962-1.363-4.413s-1.04-2.882-1.633-4.287
			c-0.482-1.144-0.991-2.272-1.523-3.384c-3.28-6.84-7.509-13.056-12.614-18.549c-0.703-0.756-1.42-1.5-2.156-2.228
			c-6.958-6.885-15.232-12.298-24.597-16.089c-9.331-3.772-19.563-5.686-30.413-5.686c-10.854,0-21.086,1.913-30.416,5.687
			c-9.365,3.79-17.641,9.204-24.593,16.087c-6.949,6.873-12.431,15.002-16.295,24.161c-0.402,0.953-0.779,1.919-1.135,2.895
			c-0.356,0.976-0.691,1.961-1.01,2.954c-1.154,3.584-2.037,7.291-2.647,11.109c-0.679,4.244-1.041,8.616-1.041,13.11
			c0,1.286,0.032,2.561,0.087,3.827c0.011,0.246,0.03,0.489,0.043,0.734c0.059,1.12,0.144,2.231,0.248,3.334h3.31l9.396,22.188
			h-7.245c0.481,1.14,0.987,2.264,1.519,3.372c2.799,5.838,6.288,11.22,10.421,16.084c1.378,1.621,2.827,3.184,4.347,4.687
			c6.962,6.892,15.238,12.306,24.594,16.089c9.321,3.773,19.555,5.687,30.417,5.687c10.859,0,21.092-1.914,30.414-5.686
			c8.333-3.37,15.803-8.041,22.26-13.89c0.792-0.718,1.576-1.446,2.337-2.199c1.625-1.608,3.162-3.291,4.624-5.033
			c4.79-5.705,8.705-12.105,11.662-19.11h-25.255c-0.978,1.484-2.027,2.916-3.15,4.291c-0.022,0.027-0.043,0.055-0.065,0.083
			c-0.505,0.617-1.03,1.219-1.563,1.814c-0.074,0.082-0.143,0.168-0.218,0.25c-0.601,0.66-1.219,1.306-1.856,1.937
			c-0.267,0.264-0.547,0.512-0.819,0.77c-4.718,4.465-10.265,8.015-16.527,10.538c-6.662,2.687-14.011,4.049-21.843,4.049
			c-7.834,0-15.183-1.362-21.847-4.05c-6.623-2.668-12.458-6.471-17.345-11.31c-4.897-4.842-8.759-10.571-11.48-17.03
			c-1.905-4.518-3.135-9.424-3.708-14.634c-0.244-2.212-0.381-4.473-0.381-6.792l0,0v0c0-2.543,0.162-5.019,0.455-7.433
			c0.417-3.44,1.129-6.741,2.134-9.885c0.223-0.699,0.458-1.392,0.707-2.078c0.249-0.685,0.512-1.362,0.793-2.03
			c2.721-6.456,6.584-12.187,11.482-17.031c0.596-0.59,1.207-1.164,1.832-1.723c1.874-1.676,3.874-3.211,5.988-4.604
			c0.068-0.045,0.132-0.094,0.2-0.138c0.724-0.472,1.462-0.928,2.213-1.366c2.254-1.315,4.626-2.476,7.11-3.477
			c6.669-2.687,14.019-4.05,21.846-4.05c7.825,0,15.175,1.363,21.843,4.048c6.623,2.671,12.46,6.477,17.346,11.308
			c4.9,4.851,8.764,10.582,11.483,17.033c2.713,6.437,4.088,13.646,4.088,21.426v0l0,0c0,0.01,0,0.02,0,0.03
			c0,0.818-0.023,1.627-0.054,2.432c-0.014,0.343-0.031,0.684-0.05,1.024c-0.023,0.427-0.055,0.85-0.087,1.273
			c-0.08,1.058-0.183,2.105-0.317,3.138h22.522c0.004-0.05,0.006-0.101,0.01-0.151c0.116-1.271,0.204-2.551,0.263-3.842
			c0.059-1.291,0.089-2.592,0.089-3.904c0-4.672-0.377-9.216-1.117-13.613C768.94,114.1,768.366,111.514,767.664,108.984z"/>
		<path fill="#FFFFFF" d="M746.038,186.779c0.792-0.718,1.576-1.446,2.337-2.199c1.625-1.608,3.162-3.292,4.624-5.033
			c-1.462,1.742-2.999,3.425-4.624,5.033C747.614,185.333,746.83,186.061,746.038,186.779z"/>
		<path fill="#FFFFFF" d="M770.501,130.352L770.501,130.352c0,1.312-0.03,2.613-0.089,3.904
			C770.471,132.965,770.501,131.663,770.501,130.352z"/>
		<path fill="#FFFFFF" d="M622.066,160.436c0.481,1.14,0.987,2.264,1.519,3.372C623.054,162.7,622.547,161.576,622.066,160.436
			L622.066,160.436z"/>
		<path fill="#FFFFFF" d="M750.531,78.351c5.106,5.493,9.335,11.709,12.614,18.549C759.865,90.06,755.637,83.844,750.531,78.351z"/>
		<path fill="#FFFFFF" d="M616.227,130.352c0,1.286,0.032,2.561,0.087,3.827C616.259,132.912,616.227,131.637,616.227,130.352
			L616.227,130.352z"/>
		<path fill="#FFFFFF" d="M766.301,104.57c-0.498-1.451-1.04-2.882-1.633-4.287c-0.483-1.144-0.991-2.272-1.523-3.384
			c0.533,1.112,1.041,2.24,1.523,3.384C765.261,101.689,765.804,103.119,766.301,104.57z"/>
		<path fill="#FFFFFF" d="M748.124,130.352L748.124,130.352c0,0.01,0,0.02,0,0.03C748.124,130.372,748.124,130.362,748.124,130.352z
			"/>
		<path fill="#FFFFFF" d="M731.735,169.58c0.272-0.258,0.552-0.506,0.819-0.77c0.637-0.63,1.255-1.276,1.856-1.937
			c-0.602,0.66-1.219,1.306-1.856,1.937C732.287,169.074,732.007,169.322,731.735,169.58z"/>
		<path fill="#FFFFFF" d="M638.604,130.352c0,2.319,0.137,4.58,0.381,6.792C638.741,134.932,638.604,132.671,638.604,130.352
			L638.604,130.352z"/>
		<path fill="#FFFFFF" d="M621.763,159.663c0.103,0.252,0.192,0.51,0.297,0.76c0.002,0.005,0.004,0.009,0.006,0.013h7.245
			l-9.396-22.188h-3.31c0.096,1.013,0.207,2.021,0.339,3.021C617.791,147.722,619.4,153.876,621.763,159.663z"/>
		<path fill="#FFFFFF" d="M622.061,160.423c-0.105-0.25-0.194-0.508-0.297-0.76C621.866,159.914,621.955,160.173,622.061,160.423
			c0.002,0.005,0.004,0.009,0.006,0.013l0,0C622.065,160.432,622.062,160.427,622.061,160.423z"/>
		<g>
			<polygon fill="#FFFFFF" points="1360.512,54.945 1360.512,135.18 1382.888,164.008 1382.888,54.945 			"/>
			<polygon fill="#FFFFFF" points="1260.36,205.819 1282.737,205.819 1282.737,125.334 1260.36,96.124 			"/>
			<polygon fill="#FFFFFF" points="1360.512,162.282 1277.432,54.945 1260.36,54.945 1260.36,69.325 1282.737,98.536 
				1282.737,98.481 1365.816,205.819 1382.888,205.819 1382.888,190.806 1360.512,161.978 			"/>
		</g>
		<g>
			<polygon fill="#FFFFFF" points="1011.267,161.667 1028.309,139.529 1092.516,56.126 960.811,56.195 950.811,56.359 
				975.492,78.383 1046.975,78.383 1000.073,139.529 983.092,161.667 948.266,207.07 1115.428,207.07 1090.412,184.881 
				993.395,184.881 			"/>
		</g>
		<g>
			<path fill="none" d="M101.382,85.325c-6.428-5.435-16.36-8.192-29.518-8.192H39.779v38.278v22.659H59.02h9.818h3.026
				c13.146,0,23.067-2.779,29.488-8.261c6.047-5.164,8.998-12.428,9.02-22.201C110.352,97.719,107.412,90.429,101.382,85.325z"/>
			<polygon fill="#FFFFFF" points="17.403,205.819 39.779,205.819 39.779,141.533 17.403,164.192 			"/>
			<path fill="#FFFFFF" d="M110.809,160.443l-5.164-7.167c6.42-3.241,11.793-7.491,16.066-12.671
				c-3.657-0.486-7.357-0.893-11.091-1.231l0.051-0.051c3.717,0.337,7.4,0.742,11.041,1.226c0.614-0.745,1.207-1.51,1.775-2.293
				h0.043c0.52-0.719,1.033-1.443,1.514-2.194c5.113-7.979,7.706-17.518,7.706-28.354c0-10.975-2.6-20.559-7.728-28.485
				c-5.13-7.926-12.487-14.073-21.869-18.27c-8.916-3.986-19.57-6.007-31.667-6.007H17.403v83.125h0.085l-0.085,0.084v0.124h0.084
				l22.292-22.659V77.133h0v-0.209h32.085c13.158,0,23.091,2.757,29.519,8.192c6.05,5.121,8.991,12.441,8.991,22.381
				c0,0.037-0.002,0.073-0.002,0.11c0,0.033,0.002,0.065,0.002,0.099c0,9.829-2.951,17.127-9.021,22.311
				c-6.421,5.481-16.342,8.261-29.488,8.261h-3.027l0.317,0.491l14.026,21.698l0.017,0.023l32.659,45.329h26.312v-1.852
				l-30.463-42.282L110.809,160.443z"/>
			<path fill="#FFFFFF" d="M101.383,85.117c-6.428-5.435-16.36-8.192-29.519-8.192H39.779v0.209h32.085
				c13.158,0,23.09,2.757,29.518,8.192c6.03,5.104,8.97,12.394,8.99,22.283c0-0.037,0.002-0.073,0.002-0.11
				C110.374,97.558,107.433,90.237,101.383,85.117z"/>
			<polygon fill="#FFFFFF" points="17.403,138.07 17.403,138.154 17.488,138.07 			"/>
		</g>
	</g>
</g>
</svg>
