<?xml version="1.0" encoding="utf-8"?>
<!-- Generator: Adobe Illustrator 17.0.0, SVG Export Plug-In . SVG Version: 6.00 Build 0)  -->
<!DOCTYPE svg PUBLIC "-//W3C//DTD SVG 1.1//EN" "http://www.w3.org/Graphics/SVG/1.1/DTD/svg11.dtd">
<svg version="1.1" id="Layer_1" xmlns="http://www.w3.org/2000/svg" xmlns:xlink="http://www.w3.org/1999/xlink" x="0px" y="0px"
	 width="1400.291px" height="261.418px" viewBox="0 0 1400.291 261.418" enable-background="new 0 0 1400.291 261.418"
	 xml:space="preserve">
<g>
	<g>
		<g>
			<g>
				<polygon fill="#FFFFFF" points="565.185,207.29 587.561,207.29 587.561,56.415 565.185,76.425 				"/>
				<polygon fill="#FFFFFF" points="465.033,207.29 487.41,207.29 487.41,56.415 465.033,55.849 				"/>
				<path fill="#FFFFFF" d="M748.393,186.08c-0.761,0.753-1.545,1.481-2.337,2.199C746.848,187.562,747.631,186.834,748.393,186.08
					c6.947-6.876,12.427-14.999,16.287-24.143l0,0C760.819,171.081,755.34,179.204,748.393,186.08z"/>
				<path fill="#FFFFFF" d="M746.334,146.482c-0.055,0.213-0.115,0.423-0.172,0.634
					C746.219,146.905,746.278,146.695,746.334,146.482z"/>
				<path fill="#FFFFFF" d="M745.422,149.572c-0.084,0.258-0.166,0.518-0.254,0.773C745.256,150.089,745.337,149.83,745.422,149.572
					z"/>
				<path fill="#FFFFFF" d="M770.166,139.599c0.232-2.541,0.353-5.123,0.353-7.746c0-7.475-0.966-14.622-2.836-21.368
					c1.87,6.746,2.836,13.893,2.836,21.368C770.519,134.476,770.398,137.058,770.166,139.599z"/>
				<path fill="#FFFFFF" d="M621.781,161.164c0.103,0.252,0.192,0.51,0.297,0.76c0.483,1.145,0.991,2.273,1.524,3.385
					c-0.533-1.112-1.042-2.24-1.524-3.385C621.973,161.674,621.884,161.415,621.781,161.164z"/>
				<path fill="#FFFFFF" d="M638.373,77.623c6.953-6.883,15.228-12.297,24.593-16.087c9.329-3.774,19.562-5.687,30.416-5.687
					c10.85,0,21.083,1.913,30.413,5.686c9.365,3.792,17.639,9.205,24.597,16.089c6.083,6.02,11.04,12.995,14.771,20.776
					c-3.731-7.781-8.688-14.757-14.771-20.776c-6.958-6.885-15.232-12.298-24.597-16.089c-9.331-3.772-19.563-5.686-30.413-5.686
					c-10.854,0-21.086,1.913-30.416,5.687C653.601,65.326,645.326,70.74,638.373,77.623c-6.949,6.873-12.431,15.002-16.295,24.161
					c-0.804,1.907-1.506,3.864-2.145,5.849c0.639-1.986,1.341-3.942,2.145-5.849C625.942,92.625,631.424,84.496,638.373,77.623z"/>
				<path fill="#FFFFFF" d="M742.074,157.447c-0.053,0.101-0.102,0.205-0.155,0.305
					C741.972,157.652,742.021,157.548,742.074,157.447z"/>
				<path fill="#FFFFFF" d="M617.285,118.742c-0.679,4.244-1.041,8.616-1.041,13.11c0,1.286,0.032,2.561,0.087,3.827
					c-0.056-1.266-0.087-2.541-0.087-3.827C616.245,127.358,616.607,122.987,617.285,118.742z"/>
				<path fill="#FFFFFF" d="M743.023,155.572c0.36-0.753,0.704-1.517,1.031-2.292c0.001-0.004,0.002-0.007,0.004-0.011
					c-0.001,0.003-0.002,0.007-0.004,0.011C743.727,154.055,743.382,154.819,743.023,155.572z"/>
				<path fill="#FFFFFF" d="M616.961,142.769c-0.274-2.089-0.473-4.207-0.586-6.355
					C616.488,138.563,616.688,140.681,616.961,142.769z"/>
				<path fill="none" d="M867.184,86.796c-6.428-5.435-16.36-8.192-29.519-8.192H805.58v61.146h32.084
					c13.146,0,23.067-2.779,29.488-8.261c6.07-5.184,9.022-12.483,9.022-22.311C876.175,99.237,873.234,91.917,867.184,86.796z"/>
				<path fill="none" d="M1204.745,93.393c-4.886-4.831-10.723-8.636-17.346-11.308c-6.668-2.686-14.018-4.048-21.843-4.048
					c-7.827,0-15.178,1.363-21.847,4.05c-6.623,2.67-12.459,6.475-17.343,11.308c-4.898,4.846-8.761,10.575-11.482,17.031
					c-2.712,6.437-4.088,13.646-4.088,21.426c0,7.782,1.376,14.991,4.088,21.426c2.721,6.459,6.583,12.188,11.48,17.03
					c4.887,4.837,10.722,8.641,17.344,11.31c6.664,2.688,14.014,4.05,21.848,4.05c7.832,0,15.181-1.362,21.843-4.049
					c6.623-2.668,12.458-6.473,17.346-11.309c4.9-4.847,8.763-10.577,11.482-17.029c2.713-6.438,4.089-13.646,4.089-21.428
					c0-7.78-1.375-14.989-4.088-21.426C1213.509,103.975,1209.645,98.244,1204.745,93.393z"/>
				<polygon fill="#FFFFFF" points="152.196,207.29 174.573,207.29 174.573,56.415 152.196,76.425 				"/>
				<polygon fill="#FFFFFF" points="918.501,207.29 940.877,207.29 940.877,56.415 918.501,76.425 				"/>
				<path fill="#FFFFFF" d="M280.46,130.77c-5.547-2.705-11.645-4.95-18.127-6.676c-5.983-1.59-12.058-3.133-18.061-4.587
					c-5.425-1.311-10.468-2.979-14.995-4.961c-3.646-1.593-6.428-3.654-8.511-6.303c-1.688-2.143-2.542-5.389-2.542-9.649
					c0-3.745,0.932-7.005,2.851-9.965c1.892-2.92,5.061-5.391,9.412-7.341c4.82-2.156,11.234-3.25,19.067-3.25
					c5.005,0,10.353,0.826,15.894,2.455c5.346,1.573,10.285,4.014,14.679,7.255l7.735,5.706l12.541-18.238l-7.04-5.368
					c-5.611-4.279-12.432-7.726-20.278-10.247c-7.762-2.489-15.743-3.751-23.72-3.751c-11.696,0-21.549,1.903-29.29,5.658
					c-8.082,3.924-14.214,9.238-18.228,15.79c-3.981,6.498-6,13.6-6,21.109c0,8.857,2.099,16.319,6.236,22.179
					c3.924,5.56,9.179,9.97,15.616,13.105c5.586,2.725,11.754,4.949,18.333,6.611c6.392,1.615,12.256,3.073,17.922,4.456
					c5.373,1.315,10.395,2.988,14.924,4.968c3.648,1.596,6.433,3.658,8.512,6.298c1.689,2.148,2.546,5.333,2.546,9.465
					c0,3.583-0.947,6.757-2.896,9.7c-1.935,2.923-5.146,5.372-9.544,7.276c-4.911,2.125-11.583,3.202-19.833,3.202
					c-7.879,0-15.252-1.459-21.918-4.34c-6.507-2.811-11.431-6.155-14.634-9.941l-6.29-7.435l-16.164,15.009l5.497,6.756
					c5.371,6.604,13.117,12.033,23.019,16.137c9.598,3.982,19.92,6.001,30.68,6.001c11.769,0,21.729-1.847,29.601-5.487
					c8.313-3.843,14.612-9.125,18.723-15.702c4.072-6.517,6.138-13.642,6.138-21.178c0-8.778-2.125-16.15-6.314-21.91
					C292.086,138.198,286.857,133.888,280.46,130.77z"/>
				<polygon fill="#FFFFFF" points="449.565,56.415 418.53,56.415 342.184,134.839 342.184,56.415 319.808,56.415 319.808,207.29 
					342.184,207.29 342.184,166.598 365.499,142.633 422.608,207.29 452.544,207.29 381.247,126.692 				"/>
				<rect x="918.501" y="139.749" fill="#FFFFFF" width="22.376" height="22.137"/>
				<rect x="918.501" y="161.937" fill="#FFFFFF" width="22.376" height="45.353"/>
				<rect x="918.501" y="161.887" fill="#FFFFFF" width="22.376" height="0.051"/>
				<path fill="#FFFFFF" d="M1220.567,77.624c-6.958-6.885-15.232-12.298-24.597-16.089c-9.331-3.772-19.563-5.686-30.413-5.686
					c-10.854,0-21.086,1.913-30.416,5.687c-9.364,3.789-17.639,9.203-24.594,16.088c-6.949,6.875-12.431,15.003-16.294,24.161
					c-3.871,9.176-5.833,19.293-5.833,30.067c0,10.778,1.962,20.895,5.833,30.07c3.862,9.155,9.345,17.283,16.292,24.157
					c6.963,6.893,15.24,12.307,24.594,16.089c9.321,3.773,19.555,5.687,30.417,5.687c10.859,0,21.092-1.914,30.414-5.686
					c9.356-3.784,17.631-9.197,24.597-16.089c6.951-6.88,12.433-15.007,16.293-24.158c3.87-9.174,5.833-19.292,5.833-30.07
					c0-10.776-1.962-20.892-5.833-30.068C1233,92.632,1227.517,84.504,1220.567,77.624z M1216.228,153.281
					c-2.719,6.453-6.582,12.183-11.482,17.029c-4.888,4.836-10.723,8.641-17.346,11.309c-6.662,2.687-14.011,4.049-21.843,4.049
					c-7.834,0-15.184-1.362-21.848-4.05c-6.623-2.668-12.457-6.472-17.344-11.31c-4.897-4.842-8.759-10.571-11.48-17.03
					c-2.712-6.435-4.088-13.644-4.088-21.426c0-7.78,1.376-14.989,4.088-21.426c2.721-6.456,6.584-12.186,11.482-17.031
					c4.884-4.833,10.721-8.638,17.343-11.308c6.669-2.687,14.02-4.05,21.847-4.05c7.825,0,15.175,1.363,21.843,4.048
					c6.623,2.671,12.459,6.477,17.346,11.308c4.9,4.851,8.764,10.582,11.483,17.033c2.713,6.437,4.088,13.646,4.088,21.426
					C1220.317,139.635,1218.941,146.843,1216.228,153.281z"/>
				<polygon fill="#FFFFFF" points="1360.529,56.415 1360.529,163.753 1277.45,56.415 1260.378,56.415 1260.378,207.29 
					1282.755,207.29 1282.755,99.952 1365.834,207.29 1382.906,207.29 1382.906,56.415 				"/>
				<rect x="465.033" y="161.937" fill="#FFFFFF" width="22.376" height="45.353"/>
				<rect x="565.185" y="161.937" fill="#FFFFFF" width="22.376" height="45.353"/>
				<path fill="#FFFFFF" d="M639.076,124.419c0.417-3.44,1.129-6.741,2.134-9.885C640.205,117.678,639.493,120.979,639.076,124.419z
					"/>
				<path fill="#FFFFFF" d="M736.274,166.228c-0.022,0.027-0.043,0.055-0.065,0.083
					C736.231,166.284,736.252,166.255,736.274,166.228z"/>
				<path fill="#FFFFFF" d="M748.038,135.338c-0.023,0.427-0.055,0.85-0.087,1.273C747.983,136.189,748.013,135.765,748.038,135.338
					z"/>
				<path fill="#FFFFFF" d="M662.012,87.068c0.068-0.045,0.132-0.093,0.2-0.138C662.144,86.975,662.08,87.023,662.012,87.068z"/>
				<path fill="#FFFFFF" d="M748.142,131.883c0,0.818-0.023,1.627-0.054,2.432C748.12,133.51,748.141,132.701,748.142,131.883z"/>
				<path fill="#FFFFFF" d="M734.646,168.124c-0.074,0.082-0.143,0.168-0.218,0.25C734.502,168.292,734.572,168.207,734.646,168.124
					z"/>
				<rect x="805.58" y="161.937" fill="#FFFFFF" width="0" height="0"/>
				<polygon fill="#FFFFFF" points="764.679,161.937 764.679,161.937 764.683,161.93 				"/>
				<path fill="#FFFFFF" d="M766.248,157.833c-0.111,0.318-0.22,0.637-0.336,0.953C766.028,158.47,766.137,158.152,766.248,157.833z
					"/>
				<path fill="#FFFFFF" d="M769.747,143.235c-0.053,0.384-0.112,0.765-0.171,1.147C769.635,144,769.694,143.619,769.747,143.235z"
					/>
				<path fill="#FFFFFF" d="M768.24,151.183c-0.018,0.073-0.04,0.145-0.058,0.217C768.201,151.328,768.222,151.256,768.24,151.183z"
					/>
				<path fill="#FFFFFF" d="M769.172,146.787c-0.067,0.366-0.132,0.732-0.205,1.096C769.04,147.519,769.105,147.152,769.172,146.787
					z"/>
				<path fill="#FFFFFF" d="M767.336,154.483c-0.099,0.334-0.205,0.666-0.309,0.998
					C767.131,155.149,767.237,154.818,767.336,154.483z"/>
				<path fill="#FFFFFF" d="M770.156,139.751c-0.013,0.136-0.032,0.27-0.045,0.406C770.124,140.021,770.143,139.887,770.156,139.751
					z"/>
				<path fill="#FFFFFF" d="M767.682,110.485c-0.826-2.98-1.811-5.889-2.996-8.701c-0.482-1.144-0.991-2.272-1.523-3.384
					c0.533,1.112,1.041,2.24,1.523,3.384C765.872,104.595,766.856,107.505,767.682,110.485z"/>
				<path fill="#FFFFFF" d="M617.285,118.742c0.61-3.818,1.494-7.525,2.647-11.109C618.779,111.217,617.896,114.924,617.285,118.742
					z"/>
				<path fill="#FFFFFF" d="M621.781,161.164c-2.363-5.787-3.973-11.941-4.819-18.394
					C617.808,149.223,619.418,155.377,621.781,161.164z"/>
				<path fill="#FFFFFF" d="M616.375,136.414c-0.013-0.245-0.032-0.488-0.043-0.734
					C616.343,135.925,616.362,136.168,616.375,136.414z"/>
				<path fill="#FFFFFF" d="M770.156,139.749c0.004-0.05,0.006-0.101,0.01-0.151C770.162,139.648,770.16,139.7,770.156,139.749
					L770.156,139.749z"/>
				<path fill="#FFFFFF" d="M693.382,207.856c-10.863,0-21.097-1.914-30.417-5.687c-9.356-3.783-17.632-9.197-24.594-16.089
					c-6.078-6.013-11.035-12.987-14.768-20.771c3.732,7.784,8.69,14.759,14.768,20.771c6.962,6.892,15.238,12.306,24.594,16.089
					C672.285,205.942,682.519,207.856,693.382,207.856c10.859,0,21.092-1.913,30.414-5.686c8.334-3.371,15.803-8.041,22.26-13.89
					c-6.457,5.849-13.926,10.52-22.26,13.89C714.474,205.942,704.241,207.856,693.382,207.856z"/>
				<path fill="#FFFFFF" d="M736.274,166.228c1.123-1.374,2.172-2.807,3.15-4.291l0,0
					C738.446,163.422,737.395,164.852,736.274,166.228z"/>
				<path fill="#FFFFFF" d="M748.087,134.314c-0.014,0.343-0.031,0.684-0.05,1.024C748.056,134.998,748.074,134.657,748.087,134.314
					z"/>
				<path fill="#FFFFFF" d="M693.382,78.038c7.825,0,15.175,1.363,21.843,4.048c6.623,2.671,12.46,6.477,17.346,11.308
					c4.9,4.851,8.764,10.582,11.483,17.033c2.713,6.437,4.088,13.646,4.088,21.426c0,0.01,0,0.02,0,0.03c0-0.01,0-0.02,0-0.03
					c0-7.78-1.375-14.989-4.088-21.426c-2.719-6.452-6.583-12.183-11.483-17.033c-4.886-4.831-10.723-8.636-17.346-11.308
					C708.557,79.4,701.207,78.037,693.382,78.038c-7.827,0-15.177,1.363-21.846,4.05c-3.312,1.335-6.426,2.954-9.324,4.843
					c2.897-1.889,6.012-3.508,9.324-4.843C678.205,79.4,685.555,78.038,693.382,78.038z"/>
				<path fill="#FFFFFF" d="M747.634,139.749c0.134-1.033,0.237-2.08,0.317-3.138C747.869,137.668,747.768,138.716,747.634,139.749
					L747.634,139.749z"/>
				<path fill="#FFFFFF" d="M731.753,171.081c0.272-0.258,0.552-0.506,0.819-0.77c0.637-0.63,1.255-1.277,1.856-1.937
					c-0.601,0.66-1.219,1.306-1.856,1.937C732.305,170.575,732.024,170.823,731.753,171.081z"/>
				<path fill="#FFFFFF" d="M654.192,93.395c2.385-2.36,5-4.47,7.82-6.327C659.192,88.925,656.577,91.036,654.192,93.395
					c-4.898,4.845-8.761,10.575-11.482,17.031c-0.562,1.334-1.053,2.709-1.5,4.107c0.447-1.398,0.938-2.773,1.5-4.107
					C645.431,103.971,649.294,98.24,654.192,93.395z"/>
				<path fill="#FFFFFF" d="M639.076,124.419c-0.293,2.414-0.455,4.89-0.455,7.433c0,2.319,0.137,4.58,0.381,6.792
					c-0.244-2.212-0.381-4.473-0.381-6.792C638.621,129.309,638.783,126.834,639.076,124.419z"/>
				<path fill="#FFFFFF" d="M736.209,166.311c-0.505,0.617-1.03,1.219-1.563,1.814C735.18,167.531,735.703,166.928,736.209,166.311z
					"/>
				<path fill="#EC1C24" d="M768.182,151.401c-0.259,1.038-0.544,2.064-0.846,3.083
					C767.638,153.465,767.923,152.439,768.182,151.401z"/>
				<path fill="#EC1C24" d="M767.027,155.482c-0.247,0.79-0.506,1.574-0.779,2.352C766.521,157.056,766.781,156.272,767.027,155.482
					z"/>
				<path fill="#EC1C24" d="M768.967,147.882c-0.221,1.109-0.458,2.212-0.727,3.301
					C768.508,150.094,768.746,148.992,768.967,147.882z"/>
				<path fill="#EC1C24" d="M770.11,140.157c-0.102,1.034-0.224,2.059-0.363,3.078C769.887,142.216,770.009,141.191,770.11,140.157z
					"/>
				<polygon fill="#EC1C24" points="770.156,139.751 770.156,139.749 770.156,139.749 				"/>
				<path fill="#EC1C24" d="M764.683,161.93c0.001-0.002,0.002-0.005,0.003-0.007c0.436-1.032,0.839-2.081,1.226-3.136
					c-0.387,1.056-0.791,2.104-1.226,3.136C764.685,161.925,764.684,161.927,764.683,161.93z"/>
				<path fill="#EC1C24" d="M769.576,144.382c-0.123,0.806-0.257,1.608-0.404,2.405C769.319,145.99,769.454,145.188,769.576,144.382
					z"/>
				<path fill="#EC1C24" d="M746.161,147.116c-0.226,0.829-0.474,1.647-0.739,2.455
					C745.688,148.764,745.934,147.945,746.161,147.116z"/>
				<path fill="#EC1C24" d="M739.424,161.937L739.424,161.937c0.892-1.352,1.726-2.746,2.494-4.185
					C741.148,159.19,740.315,160.585,739.424,161.937z"/>
				<path fill="#EC1C24" d="M743.023,155.572c-0.303,0.634-0.623,1.256-0.949,1.875C742.399,156.828,742.72,156.206,743.023,155.572
					z"/>
				<path fill="#EC1C24" d="M745.168,150.345c-0.343,0.99-0.708,1.969-1.111,2.925C744.46,152.313,744.824,151.335,745.168,150.345z
					"/>
				<path fill="#EC1C24" d="M746.334,146.482c0.566-2.177,1.001-4.423,1.3-6.733l0,0
					C747.335,142.059,746.897,144.303,746.334,146.482z"/>
				<path fill="none" d="M101.37,131.31c6.07-5.184,9.022-12.482,9.022-22.311c0-9.94-2.941-17.261-8.991-22.381
					c-6.428-5.435-16.36-8.192-29.519-8.192H39.797v38.487v22.659h19.241h9.818h3.026C85.028,139.57,94.949,136.791,101.37,131.31z"
					/>
				<polygon fill="#EC1C24" points="17.42,139.655 17.505,139.57 17.42,139.57 				"/>
				<polygon fill="#EC1C24" points="565.185,139.748 487.41,139.748 487.41,139.749 465.758,139.749 443.367,161.937 
					570.812,161.937 570.812,139.749 565.185,139.749 				"/>
				<rect x="567.998" y="136.936" fill="#EC1C24" width="0.001" height="5.626"/>
				<rect x="465.758" y="139.748" fill="#EC1C24" width="21.651" height="0.001"/>
				<path fill="#FFFFFF" d="M747.634,139.749c-0.299,2.31-0.734,4.555-1.3,6.733c-0.055,0.213-0.115,0.423-0.172,0.634
					c-0.227,0.829-0.473,1.647-0.739,2.455c-0.084,0.258-0.166,0.517-0.254,0.773c-0.344,0.99-0.708,1.969-1.111,2.925
					c-0.001,0.004-0.002,0.007-0.004,0.011c-0.327,0.775-0.67,1.539-1.031,2.292c-0.302,0.634-0.624,1.256-0.949,1.875
					c-0.053,0.101-0.102,0.205-0.155,0.305c-0.768,1.439-1.603,2.833-2.494,4.185h25.255c0.001-0.003,0.002-0.005,0.003-0.008
					s0.002-0.005,0.003-0.007c0.436-1.032,0.839-2.08,1.226-3.136c0.116-0.316,0.225-0.635,0.336-0.953
					c0.273-0.778,0.533-1.562,0.779-2.352c0.104-0.332,0.209-0.664,0.309-0.998c0.302-1.019,0.587-2.045,0.846-3.083
					c0.018-0.073,0.04-0.144,0.058-0.217c0.269-1.089,0.505-2.192,0.727-3.301c0.073-0.364,0.138-0.73,0.205-1.096
					c0.147-0.797,0.282-1.598,0.404-2.405c0.059-0.382,0.118-0.763,0.171-1.147c0.14-1.019,0.262-2.044,0.363-3.078
					c0.013-0.136,0.033-0.27,0.045-0.406c0,0,0-0.001,0-0.001H747.634z"/>
				<polygon fill="#FFFFFF" points="1011.285,163.167 1028.327,141.03 1092.533,57.626 960.829,57.696 960.829,79.884 
					1046.993,79.884 1000.091,141.03 983.11,163.167 948.283,208.571 1082.412,208.571 1082.412,186.382 993.413,186.382 				"/>
				<g>
					<polygon fill="#FFFFFF" points="783.871,207.32 806.247,207.32 806.247,143.034 783.871,165.693 					"/>
					<path fill="#FFFFFF" d="M878.172,163.187l-0.896-1.243l-5.164-7.167c6.42-3.241,11.794-7.491,16.067-12.671
						c-3.657-0.486-7.358-0.893-11.092-1.231l0.051-0.051c3.717,0.337,7.401,0.742,11.04,1.226c0.614-0.745,1.207-1.51,1.775-2.293
						h0.043c0.52-0.719,1.033-1.443,1.514-2.194c5.113-7.979,7.706-17.518,7.706-28.354c0-10.975-2.6-20.559-7.728-28.485
						c-5.13-7.926-12.487-14.073-21.869-18.27c-8.916-3.986-19.57-6.007-31.667-6.007h-54.083v83.334h0.085l22.292-22.659V78.634
						h32.085c13.158,0,23.091,2.757,29.518,8.192c6.05,5.121,8.991,12.441,8.991,22.381c0,9.829-2.951,17.127-9.022,22.311
						c-6.421,5.481-16.342,8.261-29.488,8.261h-3.027l0.317,0.491l14.026,21.698l0.017,0.023l32.658,45.329h26.312v-1.852
						L878.172,163.187z"/>
				</g>
				<g>
					<polygon fill="#FFFFFF" points="17.42,207.32 39.797,207.32 39.797,143.034 17.42,165.693 					"/>
					<path fill="#FFFFFF" d="M111.722,163.187l-0.896-1.243l-5.164-7.167c6.42-3.241,11.794-7.491,16.067-12.671
						c-3.657-0.486-7.358-0.893-11.092-1.231l0.051-0.051c3.717,0.337,7.401,0.742,11.04,1.226c0.614-0.745,1.207-1.51,1.775-2.293
						h0.043c0.52-0.719,1.033-1.443,1.514-2.194c5.113-7.979,7.706-17.518,7.706-28.354c0-10.975-2.6-20.559-7.728-28.485
						c-5.13-7.926-12.487-14.073-21.869-18.27c-8.916-3.986-19.57-6.007-31.667-6.007H17.42v83.334h0.085l22.292-22.659V78.634
						h32.085c13.158,0,23.091,2.757,29.518,8.192c6.05,5.121,8.991,12.441,8.991,22.381c0,9.829-2.951,17.127-9.022,22.311
						c-6.421,5.481-16.342,8.261-29.488,8.261h-3.027l0.317,0.491l14.026,21.698l0.017,0.023l32.658,45.329h26.312v-1.852
						L111.722,163.187z"/>
				</g>
			</g>
			<g>
				<polyline fill="#EC1C24" points="530.937,161.937 530.937,139.748 565.975,139.748 565.975,139.773 588.351,139.773 
					588.351,139.748 619.933,139.748 629.329,161.937 				"/>
			</g>
		</g>
		<path fill="#FFFFFF" d="M764.679,161.937h-25.255c-0.978,1.484-2.027,2.916-3.15,4.291c-0.022,0.027-0.043,0.055-0.065,0.083
			c-0.506,0.617-1.029,1.22-1.563,1.814c-0.074,0.082-0.144,0.168-0.218,0.25c-0.602,0.66-1.219,1.306-1.856,1.937
			c-0.267,0.264-0.547,0.512-0.819,0.77c-4.718,4.465-10.265,8.015-16.527,10.538c-6.662,2.687-14.011,4.049-21.843,4.049
			c-7.834,0-15.183-1.362-21.847-4.05c-6.623-2.668-12.458-6.471-17.345-11.31c-4.897-4.842-8.759-10.571-11.48-17.03
			c-1.905-4.518-3.135-9.424-3.708-14.634c-0.244-2.212-0.381-4.473-0.381-6.792c0-2.543,0.162-5.019,0.455-7.433
			c0.417-3.44,1.129-6.741,2.134-9.885c0.447-1.398,0.938-2.773,1.5-4.107c2.721-6.456,6.584-12.187,11.482-17.031
			c2.385-2.36,5-4.47,7.82-6.327c0.068-0.045,0.132-0.093,0.2-0.138c2.897-1.889,6.012-3.508,9.324-4.843
			c6.669-2.687,14.019-4.05,21.846-4.05c7.825,0,15.175,1.363,21.843,4.048c6.623,2.671,12.46,6.477,17.346,11.308
			c4.9,4.851,8.764,10.582,11.483,17.033c2.713,6.437,4.088,13.646,4.088,21.426c0,0.01,0,0.02,0,0.03
			c0,0.818-0.022,1.627-0.054,2.432c-0.013,0.343-0.031,0.683-0.05,1.024c-0.024,0.426-0.054,0.85-0.087,1.273
			c-0.08,1.058-0.183,2.105-0.317,3.138h22.522c0.004-0.05,0.006-0.101,0.01-0.151c0.232-2.541,0.353-5.123,0.353-7.746
			c0-7.475-0.966-14.622-2.836-21.368c-0.826-2.98-1.811-5.889-2.996-8.701c-0.483-1.144-0.991-2.272-1.523-3.384
			c-3.731-7.781-8.688-14.756-14.771-20.776c-6.958-6.885-15.232-12.298-24.597-16.089c-9.331-3.772-19.563-5.686-30.413-5.686
			c-10.854,0-21.086,1.913-30.416,5.687c-9.365,3.79-17.641,9.204-24.593,16.087c-6.949,6.873-12.431,15.002-16.295,24.161
			c-0.804,1.907-1.506,3.864-2.145,5.849c-1.154,3.584-2.037,7.291-2.647,11.109c-0.679,4.245-1.041,8.616-1.041,13.11
			c0,1.286,0.032,2.561,0.087,3.827c0.011,0.246,0.03,0.489,0.043,0.734c0.113,2.149,0.312,4.267,0.586,6.355
			c0.847,6.454,2.457,12.607,4.819,18.394c0.103,0.252,0.192,0.51,0.297,0.76c0.483,1.145,0.991,2.273,1.524,3.385
			c3.732,7.784,8.69,14.759,14.768,20.771c6.962,6.892,15.238,12.306,24.594,16.089c9.321,3.773,19.555,5.687,30.417,5.687
			c10.859,0,21.092-1.914,30.414-5.686c8.333-3.37,15.803-8.041,22.26-13.89c0.792-0.718,1.576-1.446,2.337-2.199
			C755.34,179.204,760.819,171.081,764.679,161.937z"/>
	</g>
	<path fill="#231F20" d="M174.573,56.415"/>
</g>
</svg>
