<?xml version="1.0" encoding="utf-8"?>
<!-- Generator: Adobe Illustrator 17.0.0, SVG Export Plug-In . SVG Version: 6.00 Build 0)  -->
<!DOCTYPE svg PUBLIC "-//W3C//DTD SVG 1.1//EN" "http://www.w3.org/Graphics/SVG/1.1/DTD/svg11.dtd">
<svg version="1.1" id="Layer_1" xmlns="http://www.w3.org/2000/svg" xmlns:xlink="http://www.w3.org/1999/xlink" x="0px" y="0px"
	 width="1400.291px" height="261.418px" viewBox="-345.802 -70.319 1400.291 261.418"
	 enable-background="new -345.802 -70.319 1400.291 261.418" xml:space="preserve">
<g>
	<g>
		<g>
			<path fill="#FFFFFF" d="M-215.853,11.364c5.113-7.979,7.706-17.518,7.706-28.355c0-10.975-2.6-20.559-7.728-28.485
				c-5.13-7.927-12.487-14.073-21.869-18.269c-8.916-3.986-19.57-6.007-31.668-6.007h-54.084V81.122h22.376V35.769h31.707
				c3.884,0,7.645-0.211,11.241-0.629l33.128,45.981h27.646l-37.856-52.543C-227.04,24.433-220.522,18.652-215.853,11.364z
				 M-239.546,5.32c-6.421,5.481-16.342,8.261-29.488,8.261h-32.085v-61.146h32.085c13.158,0,23.09,2.757,29.518,8.192
				c6.05,5.121,8.991,12.441,8.991,22.381C-230.524-7.161-233.475,0.137-239.546,5.32z"/>
			<rect x="-188.198" y="-69.753" fill="#FFFFFF" width="22.376" height="150.874"/>
			<path fill="#FFFFFF" d="M-59.935,4.602c-5.547-2.704-11.644-4.95-18.127-6.676c-5.983-1.59-12.057-3.133-18.06-4.587
				c-5.425-1.311-10.468-2.979-14.995-4.961c-3.645-1.593-6.428-3.654-8.511-6.303c-1.687-2.142-2.543-5.389-2.543-9.649
				c0-3.745,0.932-7.005,2.851-9.966c1.892-2.92,5.061-5.391,9.412-7.341c4.82-2.156,11.234-3.25,19.067-3.25
				c5.005,0,10.353,0.826,15.894,2.455c5.346,1.573,10.285,4.014,14.679,7.255l7.735,5.706l12.541-18.238l-7.04-5.368
				c-5.611-4.279-12.432-7.726-20.278-10.247c-7.762-2.489-15.743-3.751-23.72-3.751c-11.696,0-21.549,1.903-29.289,5.658
				c-8.082,3.924-14.215,9.237-18.228,15.79c-3.981,6.498-6,13.6-6,21.109c0,8.857,2.099,16.32,6.236,22.179
				c3.924,5.56,9.179,9.97,15.615,13.105c5.587,2.725,11.754,4.949,18.334,6.612c6.392,1.615,12.256,3.073,17.922,4.456
				c5.372,1.315,10.394,2.988,14.924,4.968c3.648,1.597,6.433,3.658,8.512,6.298c1.689,2.149,2.546,5.334,2.546,9.465
				c0,3.584-0.947,6.757-2.896,9.701c-1.935,2.923-5.147,5.372-9.545,7.276C-77.81,58.422-84.483,59.5-92.732,59.5
				c-7.879,0-15.253-1.46-21.918-4.34c-6.508-2.811-11.431-6.155-14.634-9.941l-6.29-7.435l-16.164,15.009l5.496,6.756
				c5.371,6.603,13.117,12.033,23.019,16.137c9.598,3.982,19.92,6.001,30.68,6.001c11.769,0,21.729-1.847,29.601-5.487
				c8.313-3.843,14.612-9.124,18.723-15.701c4.072-6.517,6.137-13.642,6.137-21.179c0-8.778-2.124-16.15-6.314-21.91
				C-48.309,12.029-53.537,7.72-59.935,4.602z"/>
			<polygon fill="#FFFFFF" points="109.171,-69.753 78.136,-69.753 1.789,8.671 1.789,-69.753 -20.587,-69.753 -20.587,81.122 
				1.789,81.122 1.789,40.43 25.104,16.465 82.214,81.122 112.149,81.122 40.852,0.524 			"/>
			<polygon fill="#FFFFFF" points="224.79,13.581 147.015,13.581 147.015,-69.753 124.639,-69.753 124.639,81.122 147.015,81.122 
				147.015,35.769 224.79,35.769 224.79,81.122 247.167,81.122 247.167,-69.753 224.79,-69.753 			"/>
			<path fill="#FFFFFF" d="M407.998-48.544c-6.958-6.885-15.232-12.298-24.597-16.089c-9.331-3.773-19.563-5.685-30.413-5.685
				c-10.853,0-21.087,1.913-30.416,5.687c-9.365,3.79-17.64,9.204-24.593,16.087c-6.948,6.873-12.431,15.002-16.295,24.161
				c-3.87,9.176-5.833,19.292-5.833,30.069c0,10.78,1.963,20.896,5.833,30.071c3.863,9.157,9.346,17.285,16.292,24.156
				c6.962,6.892,15.239,12.306,24.595,16.089c9.321,3.773,19.555,5.687,30.417,5.687c10.859,0,21.092-1.914,30.414-5.686
				c9.356-3.784,17.632-9.197,24.597-16.089c6.951-6.88,12.433-15.008,16.293-24.158c3.87-9.174,5.833-19.291,5.833-30.07
				c0-10.776-1.963-20.892-5.833-30.069C420.431-33.537,414.949-41.665,407.998-48.544z M352.987,59.5
				c-7.834,0-15.183-1.362-21.847-4.05c-6.623-2.668-12.457-6.471-17.344-11.31c-4.897-4.842-8.76-10.571-11.48-17.03
				c-2.713-6.437-4.089-13.646-4.089-21.426c0-7.78,1.376-14.988,4.088-21.426c2.721-6.456,6.585-12.186,11.482-17.031
				c4.885-4.833,10.721-8.637,17.344-11.308c6.669-2.687,14.019-4.05,21.846-4.05c7.825,0,15.175,1.363,21.843,4.048
				c6.623,2.671,12.46,6.477,17.346,11.308c4.901,4.851,8.764,10.581,11.484,17.033c2.713,6.437,4.088,13.646,4.088,21.426
				c0,7.782-1.376,14.991-4.089,21.428c-2.718,6.453-6.582,12.183-11.482,17.03c-4.888,4.835-10.723,8.64-17.346,11.308
				C368.169,58.138,360.819,59.5,352.987,59.5z"/>
			<path fill="#FFFFFF" d="M550.451,11.364c5.113-7.979,7.706-17.518,7.706-28.355c0-10.975-2.6-20.559-7.728-28.485
				c-5.129-7.926-12.487-14.073-21.869-18.269c-8.916-3.986-19.57-6.007-31.668-6.007h-54.083V81.122h22.376V35.769h31.706
				c3.884,0,7.645-0.211,11.241-0.629l33.129,45.981h27.646l-37.856-52.543C539.263,24.433,545.782,18.652,550.451,11.364z
				 M526.759,5.32c-6.421,5.481-16.343,8.261-29.489,8.261h-32.084v-61.146h32.084c13.159,0,23.091,2.757,29.519,8.192
				c6.05,5.121,8.991,12.441,8.991,22.381C535.78-7.162,532.829,0.136,526.759,5.32z"/>
			<path fill="#FFFFFF" d="M880.172-48.544c-6.958-6.885-15.232-12.298-24.597-16.089c-9.331-3.773-19.563-5.685-30.413-5.685
				c-10.853,0-21.087,1.913-30.416,5.687c-9.364,3.789-17.639,9.203-24.594,16.088c-6.949,6.875-12.431,15.003-16.294,24.161
				c-3.871,9.176-5.833,19.293-5.833,30.068c0,10.778,1.963,20.895,5.833,30.07c3.863,9.155,9.345,17.283,16.292,24.157
				c6.963,6.893,15.24,12.307,24.595,16.089c9.321,3.773,19.555,5.687,30.417,5.687c10.859,0,21.092-1.914,30.414-5.686
				c9.356-3.784,17.632-9.197,24.597-16.089c6.951-6.88,12.433-15.007,16.293-24.158c3.87-9.174,5.833-19.291,5.833-30.07
				c0-10.776-1.963-20.892-5.833-30.069C892.605-33.537,887.123-41.665,880.172-48.544z M825.162,59.5
				c-7.834,0-15.183-1.362-21.848-4.05c-6.623-2.668-12.457-6.472-17.344-11.31c-4.897-4.842-8.76-10.571-11.48-17.03
				c-2.713-6.435-4.088-13.643-4.088-21.425c0-7.78,1.376-14.99,4.088-21.426c2.721-6.456,6.584-12.185,11.482-17.031
				c4.884-4.833,10.721-8.637,17.343-11.308c6.669-2.687,14.02-4.05,21.847-4.05c7.825,0,15.175,1.363,21.843,4.048
				c6.623,2.671,12.459,6.477,17.346,11.308c4.901,4.851,8.764,10.581,11.484,17.033c2.713,6.437,4.088,13.646,4.088,21.426
				c0,7.782-1.376,14.991-4.089,21.428c-2.718,6.453-6.582,12.183-11.482,17.03c-4.888,4.836-10.723,8.641-17.346,11.309
				C840.343,58.138,832.994,59.5,825.162,59.5z"/>
			<polygon fill="#FFFFFF" points="1020.135,-69.753 1020.135,37.585 937.055,-69.753 919.983,-69.753 919.983,81.122 
				942.36,81.122 942.36,-26.216 1025.439,81.122 1042.511,81.122 1042.511,-69.753 			"/>
			<g>
				<rect x="578.106" y="35.719" fill="#FFFFFF" width="22.376" height="45.403"/>
				<rect x="578.106" y="-69.753" fill="#FFFFFF" width="22.376" height="83.334"/>
				<polygon fill="#FFFFFF" points="756.114,-69.823 624.409,-69.753 624.409,-47.564 710.574,-47.564 663.671,13.581 
					691.907,13.581 				"/>
				<polygon fill="#FFFFFF" points="674.865,35.719 646.69,35.719 611.864,81.122 745.993,81.122 745.993,58.933 656.994,58.933 
									"/>
			</g>
		</g>
		<polygon fill="#EC1C24" points="-257.717,35.769 -323.495,35.769 -323.495,13.581 -272.06,13.581 		"/>
		<polygon fill="#EC1C24" points="124.639,35.769 225.03,35.769 225.03,13.581 147.03,13.581 		"/>
		<polygon fill="#EC1C24" points="-345.802,35.769 -281.878,35.769 -281.878,13.581 -323.41,13.581 		"/>
		<polygon fill="#EC1C24" points="269.03,13.581 168.639,13.581 168.639,35.769 246.639,35.769 		"/>
	</g>
	<g>
		<g>
			<path fill="#FFFFFF" d="M375.239,183.488l6.439-12.195c6.244,4.586,14.439,7.122,22.537,7.122c8.684,0,14.146-3.024,14.146-8
				c0-10.928-33.854-5.073-33.854-26.83c0-14.05,12.293-23.123,31.221-23.123c9.171,0,17.659,2.049,23.61,5.854l-5.951,12.099
				c-5.171-3.513-11.806-5.269-18.537-5.269c-9.171,0-14.537,3.512-14.537,8.39c-0.098,11.221,33.854,5.366,33.854,26.343
				c0,14.147-12.488,23.221-31.514,23.221C391.532,191.098,380.994,187.781,375.239,183.488z"/>
			<path fill="#FFFFFF" d="M467.925,134.315l-2.928,14.83h31.709l-2.439,12.293h-31.806l-3.122,15.806h37.27l-2.635,12.684h-52.88
				l13.659-68.295h51.612l-2.635,12.683H467.925z"/>
			<path fill="#FFFFFF" d="M508.512,161.438c0-23.317,17.074-40.977,42.44-40.977c12.099,0,21.952,4.293,26.831,12.098
				l-11.415,9.366c-3.513-5.171-8.977-8-16.489-8c-15.415,0-25.366,11.805-25.366,26.537c0,10.342,6.829,17.172,19.122,17.172
				c6.928,0,13.074-2.439,18.147-7.903l9.366,9.562c-7.22,8.391-17.171,11.806-28.879,11.806
				C521.391,191.098,508.512,179,508.512,161.438z"/>
			<path fill="#FFFFFF" d="M581.979,167.195c0-2.342,0.292-4.781,0.78-7.317l7.61-38.245h15.902l-7.609,37.952
				c-0.391,2.146-0.586,4-0.586,5.757c0,8.293,4.684,12.293,13.172,12.293c9.561,0,15.122-5.269,17.757-18.05l7.609-37.952h15.513
				l-7.707,38.928c-4.098,20.196-15.708,30.538-34.929,30.538C592.321,191.098,581.979,181.928,581.979,167.195z"/>
			<path fill="#FFFFFF" d="M702.863,168.853l11.902,21.074h-16.684l-10.732-19.123h-13.464l-3.805,19.123h-15.903l13.659-68.295
				h27.806c16.977,0,26.733,7.805,26.733,21.171C722.375,155.682,715.058,165.049,702.863,168.853z M706.374,144.267
				c0-6.635-4.683-9.757-12.781-9.757h-12.488l-4.78,23.708h13.464C700.228,158.219,706.374,153.341,706.374,144.267z"/>
			<path fill="#FFFFFF" d="M739.546,121.633h15.903l-13.659,68.295h-15.903L739.546,121.633z"/>
			<path fill="#FFFFFF" d="M854.381,166.22l-4.683,23.708h-15.806l4.78-24.392l-17.562-43.903h15.806l12.195,30.439l24.489-30.439
				h16.293L854.381,166.22z"/>
			<path fill="#EC1C24" d="M976.309,121.633l-30.217,28.099c9.464,2.146,14.928,8.391,14.928,17.269
				c0,13.952-13.172,24.099-31.709,24.099c-10.049,0-25.794-7.002-31.648-12.076l11.703-10.884
				c4.488,3.902,13.799,9.692,21.019,9.692c9.366,0,14.635-3.61,14.635-9.854c0-4.976-3.707-7.317-11.22-7.317h-7.22l-9.177,0.038
				l28.203-26.38h-28.88l2.635-12.683h47.807H976.309z"/>
			<path fill="#EC1C24" d="M965.215,181.928c0-6.146,4.488-10.147,10.146-10.147c5.171,0,8.879,3.61,8.879,8.781
				c0,6.049-4.684,10.146-10.049,10.146C969.021,190.708,965.215,187.001,965.215,181.928z"/>
			<path fill="#EC1C24" d="M994.194,165.244c0-24.685,14.439-44.782,35.61-44.782c15.123,0,24.685,9.562,24.685,25.854
				c0,24.684-14.439,44.782-35.611,44.782C1003.755,191.098,994.194,181.537,994.194,165.244z M1038.585,146.707
				c0-8.879-3.902-12.879-10.244-12.879c-12.001,0-18.245,18.342-18.245,31.025c0,8.879,3.903,12.879,10.245,12.879
				C1032.341,177.732,1038.585,159.39,1038.585,146.707z"/>
		</g>
		<path fill="#FFFFFF" d="M783.059,134.511h-21.854l2.635-12.878h72.365l-2.634,12.878h-34.608l-11.123,55.417h-15.805
			L783.059,134.511z"/>
		<path fill="#EC1C24" d="M923.41,155.076"/>
	</g>
</g>
</svg>
