<?xml version="1.0" encoding="utf-8"?>
<!-- Generator: Adobe Illustrator 17.0.0, SVG Export Plug-In . SVG Version: 6.00 Build 0)  -->
<!DOCTYPE svg PUBLIC "-//W3C//DTD SVG 1.1//EN" "http://www.w3.org/Graphics/SVG/1.1/DTD/svg11.dtd">
<svg version="1.1" id="Layer_1" xmlns="http://www.w3.org/2000/svg" xmlns:xlink="http://www.w3.org/1999/xlink" x="0px" y="0px"
	 width="1129.693px" height="124.772px" viewBox="0 0 1129.693 124.772" enable-background="new 0 0 1129.693 124.772"
	 xml:space="preserve">
<g>
	<g>
		<g>
			<path fill="#FFFFFF" d="M109.553,67.772c4.256-6.64,6.413-14.558,6.413-23.534c0-9.09-2.165-17.045-6.434-23.642
				c-4.271-6.6-10.384-11.714-18.177-15.2c-7.338-3.279-16.078-4.942-25.979-4.942H20.534v123.865h21.024V88.022h23.818
				c2.841,0,5.604-0.139,8.265-0.414l26.448,36.711h25.967l-31.031-43.07C101.099,77.878,105.975,73.357,109.553,67.772z
				 M94.942,44.237c0,7.384-2.184,12.838-6.673,16.672c-4.851,4.141-12.45,6.239-22.59,6.239H41.558V21.327h24.121
				c10.153,0,17.765,2.082,22.618,6.188C92.768,31.298,94.942,36.769,94.942,44.237z"/>
			<polygon fill="#FFFFFF" points="128.817,124.318 149.841,124.318 149.841,0.453 128.817,21.327 			"/>
			<path fill="#FFFFFF" d="M233.71,60.117c-4.528-2.206-9.502-4.038-14.788-5.446c-4.786-1.271-9.659-2.509-14.488-3.68
				c-4.255-1.028-8.204-2.335-11.745-3.885c-2.676-1.169-4.706-2.665-6.21-4.579c-1.13-1.435-1.702-3.709-1.702-6.759
				c0-2.688,0.664-5.02,2.031-7.13c1.348-2.08,3.658-3.863,6.862-5.3c3.655-1.636,8.574-2.466,14.622-2.466
				c3.857,0,7.989,0.641,12.281,1.902c4.104,1.208,7.893,3.08,11.262,5.565l7.486,5.523l11.791-17.146l-6.813-5.195
				c-4.634-3.534-10.251-6.375-16.698-8.446C221.235,1.035,214.688,0,208.141,0c-9.598,0-17.712,1.575-24.121,4.684
				c-6.74,3.273-11.867,7.723-15.236,13.225c-3.339,5.449-5.031,11.407-5.031,17.709c0,7.418,1.775,13.693,5.275,18.649
				c3.293,4.666,7.697,8.364,13.089,10.991c4.571,2.229,9.609,4.046,14.972,5.399c4.812,1.216,9.598,2.408,14.356,3.571
				c4.211,1.03,8.146,2.34,11.689,3.889c2.68,1.173,4.713,2.671,6.214,4.577c1.131,1.438,1.704,3.662,1.704,6.611
				c0,2.553-0.674,4.811-2.06,6.904c-1.379,2.083-3.721,3.852-6.959,5.253c-3.733,1.616-8.865,2.436-15.254,2.436
				c-6.092,0-11.785-1.125-16.923-3.345c-4.986-2.154-8.735-4.688-11.143-7.533l-6.088-7.194l-15.201,14.115l5.321,6.539
				c4.464,5.486,10.869,9.985,19.033,13.369c7.871,3.267,16.333,4.923,25.151,4.923c9.779,0,17.742-1.484,24.344-4.536
				c6.932-3.203,12.198-7.628,15.653-13.154c3.416-5.468,5.148-11.449,5.148-17.776c0-7.361-1.801-13.568-5.352-18.451
				C243.443,66.342,239.066,62.731,233.71,60.117z"/>
			<polygon fill="#FFFFFF" points="372.057,0.453 342.874,0.453 283.987,60.942 283.987,0.453 262.962,0.453 262.962,124.318 
				283.987,124.318 283.987,90.826 301.033,73.306 346.093,124.318 374.212,124.318 315.817,58.306 			"/>
			<polygon fill="#FFFFFF" points="485.732,67.148 426.601,67.148 426.601,0.453 405.576,0.453 405.576,124.318 426.601,124.318 
				426.601,88.022 485.732,88.022 485.732,124.318 506.756,124.318 506.756,0.453 485.732,0.453 			"/>
			<path fill="#FFFFFF" d="M744.436,67.772c4.256-6.64,6.413-14.558,6.413-23.534c0-9.09-2.165-17.045-6.434-23.642
				c-4.271-6.6-10.384-11.714-18.177-15.2c-7.338-3.279-16.078-4.942-25.979-4.942h-44.843v123.865h21.024V88.022h23.818
				c2.841,0,5.604-0.139,8.265-0.414l26.448,36.711h25.967l-31.031-43.07C735.982,77.878,740.858,73.357,744.436,67.772z
				 M729.825,44.237c0,7.384-2.184,12.838-6.673,16.672c-4.851,4.141-12.45,6.239-22.59,6.239h-24.121V21.327h24.121
				c10.153,0,17.765,2.082,22.618,6.188C727.651,31.298,729.825,36.769,729.825,44.237z"/>
			<polygon fill="#FFFFFF" points="763.7,124.318 784.724,124.318 784.724,0.453 763.7,21.327 			"/>
			<polygon fill="#FFFFFF" points="894.068,14.779 894.068,0.453 795.157,0.453 795.157,21.327 862.513,21.327 794.4,109.992 
				794.4,124.318 895.579,124.318 895.579,103.445 825.954,103.445 			"/>
		</g>
		<g>
			<path fill="#FFFFFF" d="M538.817,62.386c0-6.016,1.06-11.582,3.149-16.543c2.1-4.979,5.077-9.396,8.85-13.128
				c3.762-3.722,8.261-6.653,13.37-8.713c5.149-2.076,10.836-3.129,16.9-3.129c6.062,0,11.749,1.053,16.898,3.128
				c5.109,2.061,9.608,4.993,13.369,8.712c3.775,3.736,6.754,8.154,8.851,13.129c2.091,4.96,3.15,10.526,3.15,16.544
				c0,1.623-0.083,3.209-0.237,4.763h21.083c0.106-1.571,0.179-3.155,0.179-4.763c0-8.835-1.612-17.135-4.792-24.671
				c-3.168-7.511-7.67-14.185-13.38-19.838c-5.718-5.657-12.512-10.103-20.198-13.214C598.357,1.568,589.971,0,581.086,0
				c-8.888,0-17.273,1.569-24.928,4.664c-7.687,3.11-14.481,7.557-20.194,13.213c-5.706,5.646-10.208,12.32-13.382,19.839
				c-3.179,7.536-4.79,15.837-4.79,24.67c0,1.608,0.072,3.191,0.179,4.763h21.083C538.9,65.595,538.817,64.008,538.817,62.386z"/>
			<path fill="#FFFFFF" d="M611.355,92.058c-3.763,3.723-8.26,6.654-13.367,8.713c-5.149,2.075-10.835,3.128-16.901,3.128
				c-6.068,0-11.754-1.052-16.902-3.128c-5.109-2.059-9.605-4.99-13.37-8.716c-1.279-1.265-2.459-2.615-3.553-4.033h-24.243
				c3.143,7.119,7.485,13.47,12.944,18.871c5.719,5.662,12.515,10.108,20.196,13.215c7.649,3.096,16.036,4.665,24.928,4.665
				c8.889,0,17.275-1.569,24.926-4.665c7.68-3.106,14.475-7.552,20.198-13.215c5.463-5.408,9.805-11.76,12.944-18.871h-24.245
				C613.816,89.44,612.635,90.791,611.355,92.058z"/>
		</g>
		<g>
			<path fill="#FFFFFF" d="M911.912,62.386c0-6.016,1.06-11.582,3.149-16.543c2.1-4.979,5.077-9.396,8.85-13.128
				c3.762-3.722,8.261-6.653,13.37-8.713c5.149-2.076,10.836-3.129,16.9-3.129c6.062,0,11.749,1.053,16.898,3.128
				c5.109,2.061,9.608,4.993,13.369,8.712c3.775,3.736,6.754,8.154,8.851,13.129c2.091,4.96,3.15,10.526,3.15,16.544
				c0,1.623-0.083,3.209-0.237,4.763h21.083c0.106-1.571,0.179-3.155,0.179-4.763c0-8.835-1.612-17.135-4.792-24.671
				c-3.168-7.511-7.67-14.185-13.38-19.838c-5.718-5.657-12.512-10.103-20.198-13.214C971.452,1.568,963.067,0,954.182,0
				c-8.888,0-17.273,1.569-24.928,4.664c-7.687,3.11-14.481,7.557-20.194,13.213c-5.706,5.646-10.208,12.32-13.382,19.839
				c-3.179,7.536-4.79,15.837-4.79,24.67c0,1.608,0.072,3.191,0.179,4.763h21.083C911.996,65.595,911.912,64.008,911.912,62.386z"/>
			<path fill="#FFFFFF" d="M984.451,92.058c-3.763,3.723-8.26,6.654-13.367,8.713c-5.149,2.075-10.835,3.128-16.901,3.128
				c-6.068,0-11.754-1.052-16.902-3.128c-5.109-2.059-9.605-4.99-13.37-8.716c-1.279-1.265-2.459-2.615-3.553-4.033h-24.243
				c3.143,7.119,7.485,13.47,12.944,18.871c5.719,5.662,12.515,10.108,20.196,13.215c7.649,3.096,16.036,4.665,24.928,4.665
				c8.889,0,17.275-1.569,24.926-4.665c7.68-3.106,14.475-7.552,20.198-13.215c5.463-5.408,9.805-11.76,12.944-18.871h-24.245
				C986.911,89.44,985.731,90.791,984.451,92.058z"/>
		</g>
		<g>
			<rect x="1108.668" y="0.453" fill="#FFFFFF" width="21.024" height="66.695"/>
			<polygon fill="#FFFFFF" points="1044.499,0.453 1040.597,0.453 1031.537,0.453 1028.513,0.453 1028.513,124.318 
				1049.537,124.318 1049.537,41.412 1069.457,67.149 1096.121,67.149 			"/>
			<polygon fill="#FFFFFF" points="1113.706,124.318 1117.609,124.318 1126.668,124.318 1129.693,124.318 1129.693,88.022 
				1085.613,88.022 			"/>
		</g>
		<polygon fill="#EC1C24" points="485.732,88.022 384.552,88.022 405.577,67.148 506.756,67.148 		"/>
	</g>
	<polygon fill="#EC1C24" points="41.885,88.022 0,88.022 21.024,67.148 62.444,67.148 	"/>
</g>
</svg>
